<svg id="icons" enable-background="new 0 0 64 64" height="512" viewBox="0 0 64 64" width="512" xmlns="http://www.w3.org/2000/svg"><path d="m49 46h-19.01-24.99c-2.2 0-4-1.8-4-4v9c0 2.2 1.8 4 4 4h25 19c2.2 0 4-1.8 4-4v-9c0 2.2-1.8 4-4 4z" fill="#ccd1d9"/><path d="m11 10h4v6h-4z" fill="#ccd1d9"/><g fill="#656d78"><path d="m24 13v2l-2 2h-7v-1-6-1h7l2 2z"/><path d="m8 49h7v3h-7z"/><path d="m19 49h7v3h-7z"/></g><path d="m53 39v3c0 2.2-1.8 4-4 4h-19.01-24.99c-2.2 0-4-1.8-4-4v-3.99-9.01c0-2.2 1.8-4 4-4h44c2.2 0 4 1.8 4 4v9.01z" fill="#e6e9ed"/><path d="m49 46.998h-44c-2.757 0-5-2.243-5-5v-12.995c0-2.757 2.243-5 5-5h44c2.757 0 5 2.243 5 5v12.995c0 2.757-2.243 5-5 5zm-44-20.995c-1.654 0-3 1.346-3 3v12.995c0 1.654 1.346 3 3 3h44c1.654 0 3-1.346 3-3v-12.995c0-1.654-1.346-3-3-3z"/><path d="m49 56h-44c-2.757 0-5-2.243-5-5v-12.995c0-.553.447-1 1-1s1 .447 1 1v12.995c0 1.654 1.346 3 3 3h44c1.654 0 3-1.346 3-3v-12.995c0-.553.447-1 1-1s1 .447 1 1v12.995c0 2.757-2.243 5-5 5z"/><path d="m15.002 52.999h-7c-.553 0-1-.447-1-1v-3.001c0-.553.447-1 1-1h7c.553 0 1 .447 1 1v3.001c0 .553-.447 1-1 1zm-6-2h5v-1.001h-5z"/><path d="m26.002 52.999h-7c-.553 0-1-.447-1-1v-3.001c0-.553.447-1 1-1h7c.553 0 1 .447 1 1v3.001c0 .553-.447 1-1 1zm-6-2h5v-1.001h-5z"/><path d="m45.998 52.998h-16c-.553 0-1-.447-1-1s.447-1 1-1h16c.553 0 1 .447 1 1s-.447 1-1 1z"/><path d="m37.99 49.998h-8c-.553 0-1-.447-1-1s.447-1 1-1h8c.553 0 1 .447 1 1s-.447 1-1 1z"/><path d="m57 39.998h-4c-.553 0-1-.447-1-1s.447-1 1-1h4c.553 0 1 .447 1 1s-.447 1-1 1z"/><path d="m57 39.997c-.553 0-1-.447-1-1s.447-1 1-1c2.757 0 5-2.243 5-5 0-.553.447-1 1-1s1 .447 1 1c0 3.859-3.141 7-7 7z"/><path d="m57 14h-4c-.553 0-1-.447-1-1s.447-1 1-1h4c.553 0 1 .447 1 1s-.447 1-1 1z"/><path d="m63 20.001c-.553 0-1-.447-1-1 0-2.757-2.243-5-5-5-.553 0-1-.447-1-1s.447-1 1-1c3.859 0 7 3.141 7 7 0 .553-.447 1-1 1z"/><path d="m63 33.997c-.553 0-1-.447-1-1v-13.996c0-.553.447-1 1-1s1 .447 1 1v13.996c0 .553-.447 1-1 1z"/><path d="m53 14h-29.003c-.553 0-1-.447-1-1s.447-1 1-1h29.003c.553 0 1 .447 1 1s-.447 1-1 1z"/><path d="m15 17h-4.002c-.553 0-1-.447-1-1v-6c0-.553.447-1 1-1h4.002c.553 0 1 .447 1 1s-.447 1-1 1h-3.002v4h3.002c.553 0 1 .447 1 1s-.447 1-1 1z"/><path d="m22.001 18h-7.001c-.553 0-1-.447-1-1v-8c0-.553.447-1 1-1h7.001c.265 0 .519.105.706.292l2.002 1.998c.188.188.294.442.294.708v3.999c0 .265-.105.52-.293.707l-2.002 2.003c-.187.188-.441.293-.707.293zm-6.001-2h5.587l1.416-1.417v-3.17l-1.416-1.413h-5.587z"/><path d="m37 36.001h-20c-.553 0-1-.447-1-1s.447-1 1-1h20c.553 0 1 .447 1 1s-.447 1-1 1z"/><path d="m31 39.001h-8c-.553 0-1-.447-1-1s.447-1 1-1h8c.553 0 1 .447 1 1s-.447 1-1 1z"/></svg>